<mxfile host="app.diagrams.net" agent="Mozilla/5.0 (Windows NT 10.0; Win64; x64; rv:134.0) Gecko/20100101 Firefox/134.0" version="26.0.4">
  <diagram name="PÃ¡gina-1" id="sMUcB73KZQ759VRX2s0P">
    <mxGraphModel dx="1114" dy="566" grid="1" gridSize="10" guides="1" tooltips="1" connect="1" arrows="1" fold="1" page="1" pageScale="1" pageWidth="827" pageHeight="1169" math="0" shadow="0">
      <root>
        <mxCell id="0" />
        <mxCell id="1" parent="0" />
        <mxCell id="QbpLR_Y5T_5dYLnzP25b-1" value="AWS Cloud" style="sketch=0;outlineConnect=0;gradientColor=none;html=1;whiteSpace=wrap;fontSize=12;fontStyle=0;shape=mxgraph.aws4.group;grIcon=mxgraph.aws4.group_aws_cloud;strokeColor=#AAB7B8;fillColor=none;verticalAlign=top;align=left;spacingLeft=30;fontColor=#AAB7B8;dashed=0;movable=1;resizable=1;rotatable=1;deletable=1;editable=1;locked=0;connectable=1;" parent="1" vertex="1">
          <mxGeometry x="90" y="40" width="510" height="520" as="geometry" />
        </mxCell>
        <mxCell id="QbpLR_Y5T_5dYLnzP25b-3" value="Region" style="points=[[0,0],[0.25,0],[0.5,0],[0.75,0],[1,0],[1,0.25],[1,0.5],[1,0.75],[1,1],[0.75,1],[0.5,1],[0.25,1],[0,1],[0,0.75],[0,0.5],[0,0.25]];outlineConnect=0;gradientColor=none;html=1;whiteSpace=wrap;fontSize=12;fontStyle=0;container=0;pointerEvents=0;collapsible=0;recursiveResize=0;shape=mxgraph.aws4.group;grIcon=mxgraph.aws4.group_region;strokeColor=#00A4A6;fillColor=none;verticalAlign=top;align=left;spacingLeft=30;fontColor=#147EBA;dashed=1;" parent="1" vertex="1">
          <mxGeometry x="100" y="80" width="490" height="470" as="geometry" />
        </mxCell>
        <mxCell id="QbpLR_Y5T_5dYLnzP25b-2" value="Availability Zone" style="fillColor=none;strokeColor=#147EBA;dashed=1;verticalAlign=top;fontStyle=0;fontColor=#147EBA;whiteSpace=wrap;html=1;container=0;" parent="1" vertex="1">
          <mxGeometry x="140" y="120" width="280" height="400" as="geometry" />
        </mxCell>
        <mxCell id="QbpLR_Y5T_5dYLnzP25b-4" value="ptactica02 VPC 10.0.0.0 /16" style="sketch=0;outlineConnect=0;gradientColor=none;html=1;whiteSpace=wrap;fontSize=12;fontStyle=0;shape=mxgraph.aws4.group;grIcon=mxgraph.aws4.group_vpc;strokeColor=#879196;fillColor=none;verticalAlign=top;align=left;spacingLeft=30;fontColor=#000000;dashed=0;" parent="1" vertex="1">
          <mxGeometry x="110" y="160" width="460" height="370" as="geometry" />
        </mxCell>
        <mxCell id="QbpLR_Y5T_5dYLnzP25b-5" value="Public subnet 10.0.1.0 /24" style="points=[[0,0],[0.25,0],[0.5,0],[0.75,0],[1,0],[1,0.25],[1,0.5],[1,0.75],[1,1],[0.75,1],[0.5,1],[0.25,1],[0,1],[0,0.75],[0,0.5],[0,0.25]];outlineConnect=0;gradientColor=none;html=1;whiteSpace=wrap;fontSize=12;fontStyle=0;container=0;pointerEvents=0;collapsible=0;recursiveResize=0;shape=mxgraph.aws4.group;grIcon=mxgraph.aws4.group_security_group;grStroke=0;strokeColor=#7AA116;fillColor=#F2F6E8;verticalAlign=top;align=left;spacingLeft=30;fontColor=#248814;dashed=0;movable=1;resizable=1;rotatable=1;deletable=1;editable=1;locked=0;connectable=1;" parent="1" vertex="1">
          <mxGeometry x="150" y="200" width="250" height="147.75" as="geometry" />
        </mxCell>
        <mxCell id="QbpLR_Y5T_5dYLnzP25b-13" value="" style="shape=image;verticalLabelPosition=bottom;labelBackgroundColor=default;verticalAlign=top;aspect=fixed;imageAspect=0;image=data:image/svg+xml,PHN2ZyBjbGFzcz0idy02IGgtNiIgeG1sbnM9Imh0dHA6Ly93d3cudzMub3JnLzIwMDAvc3ZnIiBoZWlnaHQ9IjQ4IiB3aWR0aD0iNDgiIHZpZXdCb3g9IjAgMCA0OCA0OCI+JiN4YTsmI3hhOyA8ZyBjbGFzcz0ibGF5ZXIiPiYjeGE7ICA8dGl0bGU+TGF5ZXIgMTwvdGl0bGU+JiN4YTsgIDxwYXRoIGlkPSJzdmdfMSIgZmlsbC1ydWxlPSJldmVub2RkIiBmaWxsPSIjRDQ1QjA3IiBkPSJtOSwzOWwzMCwwbDAsLTMwbC0zMCwwbDAsMzB6bTM3LC0yNmwwLC0ybC01LDBsMCwtM2ExLDEgMCAwIDAgLTEsLTFsLTMsMGwwLC01bC0yLDBsMCw1bC00LDBsMCwtNWwtMiwwbDAsNWwtNCwwbDAsLTVsLTIsMGwwLDVsLTQsMGwwLC01bC0yLDBsMCw1bC00LDBsMCwtNWwtMiwwbDAsNWwtMywwYTEsMSAwIDAgMCAtMSwxbDAsM2wtNSwwbDAsMmw1LDBsMCw0bC01LDBsMCwybDUsMGwwLDRsLTUsMGwwLDJsNSwwbDAsNGwtNSwwbDAsMmw1LDBsMCw0bC01LDBsMCwybDUsMGwwLDNhMSwxIDAgMCAwIDEsMWwzLDBsMCw1bDIsMGwwLC01bDQsMGwwLDVsMiwwbDAsLTVsNCwwbDAsNWwyLDBsMCwtNWw0LDBsMCw1bDIsMGwwLC01bDQsMGwwLDVsMiwwbDAsLTVsMywwYTEsMSAwIDAgMCAxLC0xbDAsLTNsNSwwbDAsLTJsLTUsMGwwLC00bDUsMGwwLC0ybC01LDBsMCwtNGw1LDBsMCwtMmwtNSwwbDAsLTRsNSwwbDAsLTJsLTUsMGwwLC00bDUsMHoiLz4mI3hhOyA8L2c+JiN4YTs8L3N2Zz4=;" parent="1" vertex="1">
          <mxGeometry x="187.5" y="256.38" width="45" height="45" as="geometry" />
        </mxCell>
        <mxCell id="QbpLR_Y5T_5dYLnzP25b-14" value="&lt;div&gt;&lt;font style=&quot;font-size: 11px;&quot;&gt;Instancia EC2&lt;/font&gt;&lt;/div&gt;" style="text;html=1;align=center;verticalAlign=middle;resizable=0;points=[];autosize=1;strokeColor=none;fillColor=none;" parent="1" vertex="1">
          <mxGeometry x="165" y="293.88" width="90" height="30" as="geometry" />
        </mxCell>
        <mxCell id="QbpLR_Y5T_5dYLnzP25b-25" value="" style="outlineConnect=0;dashed=0;verticalLabelPosition=bottom;verticalAlign=top;align=center;html=1;shape=mxgraph.aws3.elastic_ip;fillColor=#F58534;gradientColor=none;" parent="1" vertex="1">
          <mxGeometry x="330" y="269.13" width="40.25" height="9.5" as="geometry" />
        </mxCell>
        <mxCell id="QbpLR_Y5T_5dYLnzP25b-26" value="" style="group" parent="1" vertex="1" connectable="0">
          <mxGeometry x="514" y="320" width="255.5" height="87" as="geometry" />
        </mxCell>
        <mxCell id="QbpLR_Y5T_5dYLnzP25b-19" value="" style="outlineConnect=0;dashed=0;verticalLabelPosition=bottom;verticalAlign=top;align=center;html=1;shape=mxgraph.aws3.internet_2;fillColor=#D2D3D3;gradientColor=none;" parent="QbpLR_Y5T_5dYLnzP25b-26" vertex="1">
          <mxGeometry x="176" width="79.5" height="54" as="geometry" />
        </mxCell>
        <mxCell id="QbpLR_Y5T_5dYLnzP25b-20" value="" style="endArrow=classic;startArrow=classic;html=1;rounded=0;" parent="QbpLR_Y5T_5dYLnzP25b-26" source="QbpLR_Y5T_5dYLnzP25b-16" target="QbpLR_Y5T_5dYLnzP25b-19" edge="1">
          <mxGeometry width="50" height="50" relative="1" as="geometry">
            <mxPoint x="-44" y="82" as="sourcePoint" />
            <mxPoint x="6" y="32" as="targetPoint" />
          </mxGeometry>
        </mxCell>
        <mxCell id="QbpLR_Y5T_5dYLnzP25b-16" value="" style="sketch=0;outlineConnect=0;fontColor=#232F3E;gradientColor=none;fillColor=#8C4FFF;strokeColor=none;dashed=0;verticalLabelPosition=bottom;verticalAlign=top;align=center;html=1;fontSize=12;fontStyle=0;aspect=fixed;pointerEvents=1;shape=mxgraph.aws4.internet_gateway;" parent="QbpLR_Y5T_5dYLnzP25b-26" vertex="1">
          <mxGeometry x="35" y="7" width="40" height="40" as="geometry" />
        </mxCell>
        <mxCell id="QbpLR_Y5T_5dYLnzP25b-18" value="&lt;div&gt;Internet Gateway&lt;/div&gt;&lt;div&gt;(&lt;font color=&quot;#0080ff&quot;&gt;igw&lt;/font&gt;)&lt;br&gt;&lt;/div&gt;" style="text;html=1;align=center;verticalAlign=middle;resizable=0;points=[];autosize=1;strokeColor=none;fillColor=none;" parent="QbpLR_Y5T_5dYLnzP25b-26" vertex="1">
          <mxGeometry y="47" width="110" height="40" as="geometry" />
        </mxCell>
        <mxCell id="QbpLR_Y5T_5dYLnzP25b-24" value="Internet" style="text;html=1;align=center;verticalAlign=middle;resizable=0;points=[];autosize=1;strokeColor=none;fillColor=none;" parent="QbpLR_Y5T_5dYLnzP25b-26" vertex="1">
          <mxGeometry x="185.75" y="52" width="60" height="30" as="geometry" />
        </mxCell>
        <mxCell id="QbpLR_Y5T_5dYLnzP25b-31" value="&lt;font style=&quot;font-size: 11px;&quot;&gt;Elastic IP&lt;/font&gt;" style="text;html=1;align=center;verticalAlign=middle;resizable=0;points=[];autosize=1;strokeColor=none;fillColor=none;" parent="1" vertex="1">
          <mxGeometry x="315.13" y="278.63" width="70" height="30" as="geometry" />
        </mxCell>
        <mxCell id="HtpjjP8wrkWxn_Mk4veu-5" value="Private subnet 10.0.2.0 /24" style="points=[[0,0],[0.25,0],[0.5,0],[0.75,0],[1,0],[1,0.25],[1,0.5],[1,0.75],[1,1],[0.75,1],[0.5,1],[0.25,1],[0,1],[0,0.75],[0,0.5],[0,0.25]];outlineConnect=0;gradientColor=none;html=1;whiteSpace=wrap;fontSize=12;fontStyle=0;container=1;pointerEvents=0;collapsible=0;recursiveResize=0;shape=mxgraph.aws4.group;grIcon=mxgraph.aws4.group_security_group;grStroke=0;strokeColor=#00A4A6;fillColor=#E6F6F7;verticalAlign=top;align=left;spacingLeft=30;fontColor=#147EBA;dashed=0;" parent="1" vertex="1">
          <mxGeometry x="150" y="360" width="250" height="150" as="geometry" />
        </mxCell>
        <mxCell id="HtpjjP8wrkWxn_Mk4veu-6" value="" style="shape=image;verticalLabelPosition=bottom;labelBackgroundColor=default;verticalAlign=top;aspect=fixed;imageAspect=0;image=data:image/svg+xml,PHN2ZyBjbGFzcz0idy02IGgtNiIgeG1sbnM9Imh0dHA6Ly93d3cudzMub3JnLzIwMDAvc3ZnIiBoZWlnaHQ9IjQ4IiB3aWR0aD0iNDgiIHZpZXdCb3g9IjAgMCA0OCA0OCI+JiN4YTsmI3hhOyA8ZyBjbGFzcz0ibGF5ZXIiPiYjeGE7ICA8dGl0bGU+TGF5ZXIgMTwvdGl0bGU+JiN4YTsgIDxwYXRoIGlkPSJzdmdfMSIgZmlsbC1ydWxlPSJldmVub2RkIiBmaWxsPSIjRDQ1QjA3IiBkPSJtOSwzOWwzMCwwbDAsLTMwbC0zMCwwbDAsMzB6bTM3LC0yNmwwLC0ybC01LDBsMCwtM2ExLDEgMCAwIDAgLTEsLTFsLTMsMGwwLC01bC0yLDBsMCw1bC00LDBsMCwtNWwtMiwwbDAsNWwtNCwwbDAsLTVsLTIsMGwwLDVsLTQsMGwwLC01bC0yLDBsMCw1bC00LDBsMCwtNWwtMiwwbDAsNWwtMywwYTEsMSAwIDAgMCAtMSwxbDAsM2wtNSwwbDAsMmw1LDBsMCw0bC01LDBsMCwybDUsMGwwLDRsLTUsMGwwLDJsNSwwbDAsNGwtNSwwbDAsMmw1LDBsMCw0bC01LDBsMCwybDUsMGwwLDNhMSwxIDAgMCAwIDEsMWwzLDBsMCw1bDIsMGwwLC01bDQsMGwwLDVsMiwwbDAsLTVsNCwwbDAsNWwyLDBsMCwtNWw0LDBsMCw1bDIsMGwwLC01bDQsMGwwLDVsMiwwbDAsLTVsMywwYTEsMSAwIDAgMCAxLC0xbDAsLTNsNSwwbDAsLTJsLTUsMGwwLC00bDUsMGwwLC0ybC01LDBsMCwtNGw1LDBsMCwtMmwtNSwwbDAsLTRsNSwwbDAsLTJsLTUsMGwwLC00bDUsMHoiLz4mI3hhOyA8L2c+JiN4YTs8L3N2Zz4=;" parent="HtpjjP8wrkWxn_Mk4veu-5" vertex="1">
          <mxGeometry x="37.49000000000001" y="59.25" width="45" height="45" as="geometry" />
        </mxCell>
        <mxCell id="HtpjjP8wrkWxn_Mk4veu-19" value="&lt;div&gt;&lt;font style=&quot;font-size: 11px;&quot;&gt;Instancia EC2&lt;/font&gt;&lt;/div&gt;" style="text;html=1;align=center;verticalAlign=middle;resizable=0;points=[];autosize=1;strokeColor=none;fillColor=none;" parent="HtpjjP8wrkWxn_Mk4veu-5" vertex="1">
          <mxGeometry x="14.990000000000009" y="99.75" width="90" height="30" as="geometry" />
        </mxCell>
        <mxCell id="HtpjjP8wrkWxn_Mk4veu-7" value="" style="sketch=0;outlineConnect=0;fontColor=#232F3E;gradientColor=none;fillColor=#8C4FFF;strokeColor=none;dashed=0;verticalLabelPosition=bottom;verticalAlign=top;align=center;html=1;fontSize=12;fontStyle=0;aspect=fixed;pointerEvents=1;shape=mxgraph.aws4.nat_gateway;" parent="1" vertex="1">
          <mxGeometry x="280" y="258.88" width="40" height="40" as="geometry" />
        </mxCell>
        <mxCell id="HtpjjP8wrkWxn_Mk4veu-8" value="" style="sketch=0;outlineConnect=0;fontColor=#232F3E;gradientColor=none;fillColor=#8C4FFF;strokeColor=none;dashed=0;verticalLabelPosition=bottom;verticalAlign=top;align=center;html=1;fontSize=12;fontStyle=0;aspect=fixed;pointerEvents=1;shape=mxgraph.aws4.route_table;" parent="1" vertex="1">
          <mxGeometry x="440" y="297" width="36.95" height="36" as="geometry" />
        </mxCell>
        <object label="" id="HtpjjP8wrkWxn_Mk4veu-9">
          <mxCell style="sketch=0;outlineConnect=0;fontColor=#232F3E;gradientColor=none;fillColor=#8C4FFF;strokeColor=none;dashed=0;verticalLabelPosition=bottom;verticalAlign=top;align=center;html=1;fontSize=12;fontStyle=0;aspect=fixed;pointerEvents=1;shape=mxgraph.aws4.route_table;" parent="1" vertex="1">
            <mxGeometry x="440" y="423.75" width="36.95" height="36" as="geometry" />
          </mxCell>
        </object>
        <mxCell id="HtpjjP8wrkWxn_Mk4veu-10" value="&lt;div&gt;&lt;font style=&quot;font-size: 11px;&quot;&gt;NAT Gateway&lt;/font&gt;&lt;/div&gt;&lt;div&gt;&lt;font style=&quot;font-size: 11px;&quot;&gt;(&lt;font color=&quot;#0080ff&quot;&gt;nat-gw&lt;/font&gt;)&lt;br&gt;&lt;/font&gt;&lt;/div&gt;" style="text;html=1;align=center;verticalAlign=middle;resizable=0;points=[];autosize=1;strokeColor=none;fillColor=none;" parent="1" vertex="1">
          <mxGeometry x="255" y="223.88" width="90" height="40" as="geometry" />
        </mxCell>
        <mxCell id="HtpjjP8wrkWxn_Mk4veu-13" value="" style="endArrow=classic;startArrow=classic;html=1;rounded=0;edgeStyle=orthogonalEdgeStyle;" parent="1" source="HtpjjP8wrkWxn_Mk4veu-7" edge="1" target="HtpjjP8wrkWxn_Mk4veu-9">
          <mxGeometry width="50" height="50" relative="1" as="geometry">
            <mxPoint x="299.95" y="284.6300000000001" as="sourcePoint" />
            <mxPoint x="440.05973415370335" y="410.75" as="targetPoint" />
            <Array as="points">
              <mxPoint x="290" y="341" />
              <mxPoint x="410" y="341" />
              <mxPoint x="410" y="411" />
              <mxPoint x="459" y="411" />
            </Array>
          </mxGeometry>
        </mxCell>
        <mxCell id="HtpjjP8wrkWxn_Mk4veu-14" value="" style="endArrow=classic;startArrow=classic;html=1;rounded=0;exitX=1;exitY=0.5;exitDx=0;exitDy=0;" parent="1" source="HtpjjP8wrkWxn_Mk4veu-6" target="HtpjjP8wrkWxn_Mk4veu-9" edge="1">
          <mxGeometry width="50" height="50" relative="1" as="geometry">
            <mxPoint x="390" y="410" as="sourcePoint" />
            <mxPoint x="440" y="360" as="targetPoint" />
          </mxGeometry>
        </mxCell>
        <mxCell id="HtpjjP8wrkWxn_Mk4veu-15" value="" style="endArrow=classic;startArrow=classic;html=1;rounded=0;edgeStyle=orthogonalEdgeStyle;" parent="1" source="HtpjjP8wrkWxn_Mk4veu-8" target="QbpLR_Y5T_5dYLnzP25b-16" edge="1">
          <mxGeometry width="50" height="50" relative="1" as="geometry">
            <mxPoint x="390" y="410" as="sourcePoint" />
            <mxPoint x="440" y="360" as="targetPoint" />
          </mxGeometry>
        </mxCell>
        <mxCell id="HtpjjP8wrkWxn_Mk4veu-16" value="&lt;div&gt;Tabla de enrutamiento&lt;/div&gt;&lt;div&gt;pÃºblica&lt;/div&gt;" style="text;html=1;align=center;verticalAlign=middle;resizable=0;points=[];autosize=1;strokeColor=none;fillColor=none;" parent="1" vertex="1">
          <mxGeometry x="383.47" y="253.88" width="150" height="40" as="geometry" />
        </mxCell>
        <mxCell id="HtpjjP8wrkWxn_Mk4veu-17" value="&lt;div&gt;Tabla de enrutamiento&lt;/div&gt;&lt;div&gt;privada&lt;/div&gt;" style="text;html=1;align=center;verticalAlign=middle;resizable=0;points=[];autosize=1;strokeColor=none;fillColor=none;" parent="1" vertex="1">
          <mxGeometry x="383.47" y="456.75" width="150" height="40" as="geometry" />
        </mxCell>
        <mxCell id="HtpjjP8wrkWxn_Mk4veu-18" value="" style="endArrow=classic;startArrow=classic;html=1;rounded=0;edgeStyle=orthogonalEdgeStyle;" parent="1" source="HtpjjP8wrkWxn_Mk4veu-7" target="HtpjjP8wrkWxn_Mk4veu-8" edge="1">
          <mxGeometry width="50" height="50" relative="1" as="geometry">
            <mxPoint x="390" y="410" as="sourcePoint" />
            <mxPoint x="440" y="360" as="targetPoint" />
            <Array as="points">
              <mxPoint x="300" y="315" />
            </Array>
          </mxGeometry>
        </mxCell>
        <mxCell id="HtpjjP8wrkWxn_Mk4veu-24" value="Tabla de enrutamiento&#xa;de subred privada&#xa;" style="shape=table;startSize=40;container=1;collapsible=0;childLayout=tableLayout;strokeColor=default;fontSize=12;fontStyle=1;verticalAlign=top;" parent="1" vertex="1">
          <mxGeometry x="609.5" y="410.75" width="160" height="123" as="geometry" />
        </mxCell>
        <mxCell id="HtpjjP8wrkWxn_Mk4veu-25" value="" style="shape=tableRow;horizontal=0;startSize=0;swimlaneHead=0;swimlaneBody=0;strokeColor=inherit;top=0;left=0;bottom=0;right=0;collapsible=0;dropTarget=0;fillColor=none;points=[[0,0.5],[1,0.5]];portConstraint=eastwest;fontSize=16;" parent="HtpjjP8wrkWxn_Mk4veu-24" vertex="1">
          <mxGeometry y="40" width="160" height="28" as="geometry" />
        </mxCell>
        <mxCell id="HtpjjP8wrkWxn_Mk4veu-26" value="&lt;font style=&quot;font-size: 13px;&quot;&gt;&lt;b&gt;Destino&lt;/b&gt;&lt;/font&gt;" style="shape=partialRectangle;html=1;whiteSpace=wrap;connectable=0;strokeColor=inherit;overflow=hidden;fillColor=none;top=0;left=0;bottom=0;right=0;pointerEvents=1;fontSize=16;" parent="HtpjjP8wrkWxn_Mk4veu-25" vertex="1">
          <mxGeometry width="80" height="28" as="geometry">
            <mxRectangle width="80" height="28" as="alternateBounds" />
          </mxGeometry>
        </mxCell>
        <mxCell id="HtpjjP8wrkWxn_Mk4veu-27" value="&lt;font style=&quot;font-size: 13px;&quot;&gt;&lt;b&gt;Objetivo&lt;/b&gt;&lt;/font&gt;" style="shape=partialRectangle;html=1;whiteSpace=wrap;connectable=0;strokeColor=inherit;overflow=hidden;fillColor=none;top=0;left=0;bottom=0;right=0;pointerEvents=1;fontSize=16;" parent="HtpjjP8wrkWxn_Mk4veu-25" vertex="1">
          <mxGeometry x="80" width="80" height="28" as="geometry">
            <mxRectangle width="80" height="28" as="alternateBounds" />
          </mxGeometry>
        </mxCell>
        <mxCell id="HtpjjP8wrkWxn_Mk4veu-29" value="" style="shape=tableRow;horizontal=0;startSize=0;swimlaneHead=0;swimlaneBody=0;strokeColor=inherit;top=0;left=0;bottom=0;right=0;collapsible=0;dropTarget=0;fillColor=none;points=[[0,0.5],[1,0.5]];portConstraint=eastwest;fontSize=16;" parent="HtpjjP8wrkWxn_Mk4veu-24" vertex="1">
          <mxGeometry y="68" width="160" height="27" as="geometry" />
        </mxCell>
        <mxCell id="HtpjjP8wrkWxn_Mk4veu-30" value="&lt;font style=&quot;font-size: 13px;&quot;&gt;10.0.0.0/16&lt;/font&gt;" style="shape=partialRectangle;html=1;whiteSpace=wrap;connectable=0;strokeColor=inherit;overflow=hidden;fillColor=none;top=0;left=0;bottom=0;right=0;pointerEvents=1;fontSize=16;" parent="HtpjjP8wrkWxn_Mk4veu-29" vertex="1">
          <mxGeometry width="80" height="27" as="geometry">
            <mxRectangle width="80" height="27" as="alternateBounds" />
          </mxGeometry>
        </mxCell>
        <mxCell id="HtpjjP8wrkWxn_Mk4veu-31" value="&lt;font style=&quot;font-size: 13px;&quot;&gt;local&lt;/font&gt;" style="shape=partialRectangle;html=1;whiteSpace=wrap;connectable=0;strokeColor=inherit;overflow=hidden;fillColor=none;top=0;left=0;bottom=0;right=0;pointerEvents=1;fontSize=16;" parent="HtpjjP8wrkWxn_Mk4veu-29" vertex="1">
          <mxGeometry x="80" width="80" height="27" as="geometry">
            <mxRectangle width="80" height="27" as="alternateBounds" />
          </mxGeometry>
        </mxCell>
        <mxCell id="HtpjjP8wrkWxn_Mk4veu-37" style="shape=tableRow;horizontal=0;startSize=0;swimlaneHead=0;swimlaneBody=0;strokeColor=inherit;top=0;left=0;bottom=0;right=0;collapsible=0;dropTarget=0;fillColor=none;points=[[0,0.5],[1,0.5]];portConstraint=eastwest;fontSize=16;" parent="HtpjjP8wrkWxn_Mk4veu-24" vertex="1">
          <mxGeometry y="95" width="160" height="28" as="geometry" />
        </mxCell>
        <mxCell id="HtpjjP8wrkWxn_Mk4veu-38" value="&lt;font color=&quot;#0080ff&quot; style=&quot;font-size: 13px;&quot;&gt;0.0.0.0/0&lt;/font&gt;" style="shape=partialRectangle;html=1;whiteSpace=wrap;connectable=0;strokeColor=inherit;overflow=hidden;fillColor=none;top=0;left=0;bottom=0;right=0;pointerEvents=1;fontSize=16;" parent="HtpjjP8wrkWxn_Mk4veu-37" vertex="1">
          <mxGeometry width="80" height="28" as="geometry">
            <mxRectangle width="80" height="28" as="alternateBounds" />
          </mxGeometry>
        </mxCell>
        <mxCell id="HtpjjP8wrkWxn_Mk4veu-39" value="&lt;font color=&quot;#0080ff&quot;&gt;&lt;b&gt;&lt;font style=&quot;font-size: 13px;&quot;&gt;nat-gw&lt;/font&gt;&lt;/b&gt;&lt;/font&gt;" style="shape=partialRectangle;html=1;whiteSpace=wrap;connectable=0;strokeColor=inherit;overflow=hidden;fillColor=none;top=0;left=0;bottom=0;right=0;pointerEvents=1;fontSize=16;" parent="HtpjjP8wrkWxn_Mk4veu-37" vertex="1">
          <mxGeometry x="80" width="80" height="28" as="geometry">
            <mxRectangle width="80" height="28" as="alternateBounds" />
          </mxGeometry>
        </mxCell>
        <mxCell id="HtpjjP8wrkWxn_Mk4veu-40" value="Tabla de enrutamiento&#xa;de subred pÃºblica&#xa;" style="shape=table;startSize=40;container=1;collapsible=0;childLayout=tableLayout;strokeColor=default;fontSize=12;fontStyle=1;verticalAlign=top;" parent="1" vertex="1">
          <mxGeometry x="609.5" y="160" width="160" height="123" as="geometry" />
        </mxCell>
        <mxCell id="HtpjjP8wrkWxn_Mk4veu-41" value="" style="shape=tableRow;horizontal=0;startSize=0;swimlaneHead=0;swimlaneBody=0;strokeColor=inherit;top=0;left=0;bottom=0;right=0;collapsible=0;dropTarget=0;fillColor=none;points=[[0,0.5],[1,0.5]];portConstraint=eastwest;fontSize=16;" parent="HtpjjP8wrkWxn_Mk4veu-40" vertex="1">
          <mxGeometry y="40" width="160" height="28" as="geometry" />
        </mxCell>
        <mxCell id="HtpjjP8wrkWxn_Mk4veu-42" value="&lt;font style=&quot;font-size: 13px;&quot;&gt;&lt;b&gt;Destino&lt;/b&gt;&lt;/font&gt;" style="shape=partialRectangle;html=1;whiteSpace=wrap;connectable=0;strokeColor=inherit;overflow=hidden;fillColor=none;top=0;left=0;bottom=0;right=0;pointerEvents=1;fontSize=16;" parent="HtpjjP8wrkWxn_Mk4veu-41" vertex="1">
          <mxGeometry width="80" height="28" as="geometry">
            <mxRectangle width="80" height="28" as="alternateBounds" />
          </mxGeometry>
        </mxCell>
        <mxCell id="HtpjjP8wrkWxn_Mk4veu-43" value="&lt;font style=&quot;font-size: 13px;&quot;&gt;&lt;b&gt;Objetivo&lt;/b&gt;&lt;/font&gt;" style="shape=partialRectangle;html=1;whiteSpace=wrap;connectable=0;strokeColor=inherit;overflow=hidden;fillColor=none;top=0;left=0;bottom=0;right=0;pointerEvents=1;fontSize=16;" parent="HtpjjP8wrkWxn_Mk4veu-41" vertex="1">
          <mxGeometry x="80" width="80" height="28" as="geometry">
            <mxRectangle width="80" height="28" as="alternateBounds" />
          </mxGeometry>
        </mxCell>
        <mxCell id="HtpjjP8wrkWxn_Mk4veu-44" value="" style="shape=tableRow;horizontal=0;startSize=0;swimlaneHead=0;swimlaneBody=0;strokeColor=inherit;top=0;left=0;bottom=0;right=0;collapsible=0;dropTarget=0;fillColor=none;points=[[0,0.5],[1,0.5]];portConstraint=eastwest;fontSize=16;" parent="HtpjjP8wrkWxn_Mk4veu-40" vertex="1">
          <mxGeometry y="68" width="160" height="27" as="geometry" />
        </mxCell>
        <mxCell id="HtpjjP8wrkWxn_Mk4veu-45" value="&lt;font style=&quot;font-size: 13px;&quot;&gt;10.0.0.0/16&lt;/font&gt;" style="shape=partialRectangle;html=1;whiteSpace=wrap;connectable=0;strokeColor=inherit;overflow=hidden;fillColor=none;top=0;left=0;bottom=0;right=0;pointerEvents=1;fontSize=16;" parent="HtpjjP8wrkWxn_Mk4veu-44" vertex="1">
          <mxGeometry width="80" height="27" as="geometry">
            <mxRectangle width="80" height="27" as="alternateBounds" />
          </mxGeometry>
        </mxCell>
        <mxCell id="HtpjjP8wrkWxn_Mk4veu-46" value="&lt;font style=&quot;font-size: 13px;&quot;&gt;local&lt;/font&gt;" style="shape=partialRectangle;html=1;whiteSpace=wrap;connectable=0;strokeColor=inherit;overflow=hidden;fillColor=none;top=0;left=0;bottom=0;right=0;pointerEvents=1;fontSize=16;" parent="HtpjjP8wrkWxn_Mk4veu-44" vertex="1">
          <mxGeometry x="80" width="80" height="27" as="geometry">
            <mxRectangle width="80" height="27" as="alternateBounds" />
          </mxGeometry>
        </mxCell>
        <mxCell id="HtpjjP8wrkWxn_Mk4veu-47" style="shape=tableRow;horizontal=0;startSize=0;swimlaneHead=0;swimlaneBody=0;strokeColor=inherit;top=0;left=0;bottom=0;right=0;collapsible=0;dropTarget=0;fillColor=none;points=[[0,0.5],[1,0.5]];portConstraint=eastwest;fontSize=16;" parent="HtpjjP8wrkWxn_Mk4veu-40" vertex="1">
          <mxGeometry y="95" width="160" height="28" as="geometry" />
        </mxCell>
        <mxCell id="HtpjjP8wrkWxn_Mk4veu-48" value="&lt;font color=&quot;#0080ff&quot; style=&quot;font-size: 13px;&quot;&gt;0.0.0.0/0&lt;/font&gt;" style="shape=partialRectangle;html=1;whiteSpace=wrap;connectable=0;strokeColor=inherit;overflow=hidden;fillColor=none;top=0;left=0;bottom=0;right=0;pointerEvents=1;fontSize=16;" parent="HtpjjP8wrkWxn_Mk4veu-47" vertex="1">
          <mxGeometry width="80" height="28" as="geometry">
            <mxRectangle width="80" height="28" as="alternateBounds" />
          </mxGeometry>
        </mxCell>
        <mxCell id="HtpjjP8wrkWxn_Mk4veu-49" value="&lt;font color=&quot;#0080ff&quot; style=&quot;font-size: 13px;&quot;&gt;&lt;b&gt;igw&lt;/b&gt;&lt;/font&gt;" style="shape=partialRectangle;html=1;whiteSpace=wrap;connectable=0;strokeColor=inherit;overflow=hidden;fillColor=none;top=0;left=0;bottom=0;right=0;pointerEvents=1;fontSize=16;" parent="HtpjjP8wrkWxn_Mk4veu-47" vertex="1">
          <mxGeometry x="80" width="80" height="28" as="geometry">
            <mxRectangle width="80" height="28" as="alternateBounds" />
          </mxGeometry>
        </mxCell>
        <mxCell id="OY86zRdRU5MvmW95gpQ_-1" value="acceso-publico" style="fillColor=none;strokeColor=#DD3522;verticalAlign=top;fontStyle=0;fontColor=#DD3522;whiteSpace=wrap;html=1;" vertex="1" parent="1">
          <mxGeometry x="155" y="225.88" width="110" height="106" as="geometry" />
        </mxCell>
        <mxCell id="OY86zRdRU5MvmW95gpQ_-2" value="acceso-privado" style="fillColor=none;strokeColor=#DD3522;verticalAlign=top;fontStyle=0;fontColor=#DD3522;whiteSpace=wrap;html=1;" vertex="1" parent="1">
          <mxGeometry x="155" y="390.75" width="110" height="106" as="geometry" />
        </mxCell>
      </root>
    </mxGraphModel>
  </diagram>
</mxfile>
